<svg width="72" height="72" viewBox="0 0 72 72" fill="none" xmlns="http://www.w3.org/2000/svg">
<path d="M71.9986 31.5833C71.9987 31.2962 71.9128 31.0063 71.7308 30.7563C71.6678 30.6698 71.5963 30.5935 71.5191 30.5258C71.5193 30.5257 71.5195 30.5255 71.5198 30.5253L66.6667 26.278C67.7123 25.4359 68.3831 24.1464 68.3831 22.7024V20.3948C68.3831 14.1915 63.3364 9.14478 57.1331 9.14478C50.9299 9.14478 45.8831 14.1915 45.8831 20.3948C45.8831 26.598 50.9299 31.6448 57.1331 31.6448C57.9098 31.6448 58.5394 31.0152 58.5394 30.2385C58.5394 29.4619 57.9098 28.8323 57.1331 28.8323C52.4807 28.8323 48.6956 25.0472 48.6956 20.3948C48.6956 15.7423 52.4807 11.9573 57.1331 11.9573C61.7856 11.9573 65.5706 15.7423 65.5706 20.3948V22.7024C65.5706 23.6826 64.7733 24.4799 63.793 24.4799C62.8128 24.4799 62.0155 23.6826 62.0155 22.7024V20.7593V16.7163C62.0155 16.3296 61.8563 15.96 61.5753 15.6944C60.369 14.5541 58.7915 13.926 57.1331 13.926C53.5663 13.926 50.6644 16.828 50.6644 20.3948C50.6644 23.9616 53.5663 26.8635 57.1331 26.8635C58.34 26.8635 59.5034 26.5294 60.5128 25.9087C61.3198 26.7342 62.4345 27.2564 63.6697 27.2893C63.7452 27.4212 63.8422 27.5436 63.963 27.6493L68.3426 31.4822L57.0938 39.6659V35.9998C57.0938 35.2231 56.4642 34.5935 55.6875 34.5935C54.9108 34.5935 54.2812 35.2231 54.2812 35.9998V41.712L43.783 49.3495L36.8273 44.2892C36.3341 43.9303 35.6659 43.9303 35.1727 44.2892L28.217 49.3495L3.71841 31.5265L11.7204 24.5235C12.3048 24.0121 12.3639 23.1236 11.8524 22.5392C11.3408 21.9547 10.4525 21.8957 9.86808 22.4071L0.518625 30.4929C0.518062 30.4935 0.5175 30.4939 0.516937 30.4945C0.201516 30.7524 0 31.1443 0 31.5835V70.5934C0 71.3701 0.629578 71.9997 1.40625 71.9997H70.5938C71.3704 71.9997 72 71.3701 72 70.5934V31.5835C71.9996 31.5835 71.999 31.5833 71.9986 31.5833ZM59.2031 20.7594V22.7026V23.4078C58.5973 23.8256 57.8796 24.051 57.1333 24.051C55.1173 24.051 53.477 22.4108 53.477 20.3948C53.477 18.3788 55.1173 16.7385 57.1333 16.7385C57.8797 16.7385 58.5973 16.9639 59.2031 17.3817V20.7594ZM2.8125 34.3455L25.8266 51.0884L2.8125 67.8314V34.3455ZM5.72962 69.1872L36 47.1653L66.2704 69.1872H5.72962ZM69.1875 67.8314L46.1734 51.0884L69.1875 34.3455V67.8314Z" fill="#50B44C"/>
<path d="M47.4394 9.45543L36.9208 0.342925C36.3864 -0.120153 35.6034 -0.107215 35.0835 0.341238C35.0831 0.340816 35.0828 0.340535 35.0824 0.340113L30.0199 4.69949C29.4314 5.2063 29.3652 6.09421 29.872 6.68272C30.1501 7.00574 30.5429 7.17139 30.9382 7.17139C31.2632 7.17139 31.5897 7.05946 31.8552 6.8308L35.9975 3.26385L42.7856 9.1445H16.3125C15.5358 9.1445 14.9062 9.77408 14.9062 10.5508V30.7964C14.9062 31.5731 15.5358 32.2026 16.3125 32.2026C17.0892 32.2026 17.7187 31.5731 17.7187 30.7964V11.9571H46.5186C46.514 11.9455 46.5104 11.9353 46.5059 11.924C46.5099 11.924 46.514 11.9245 46.5179 11.9245C46.9116 11.9245 47.3033 11.76 47.5814 11.4391C48.0899 10.8521 48.0264 9.96393 47.4394 9.45543Z" fill="#50B44C"/>
<path d="M36.1958 23.3433H22.1367C21.36 23.3433 20.7305 23.9728 20.7305 24.7495C20.7305 25.5262 21.36 26.1558 22.1367 26.1558H36.1958C36.9725 26.1558 37.6021 25.5262 37.6021 24.7495C37.6021 23.9728 36.9725 23.3433 36.1958 23.3433Z" fill="#50B44C"/>
<path d="M36 16.312H22.1367C21.36 16.312 20.7305 16.9416 20.7305 17.7183C20.7305 18.4949 21.36 19.1245 22.1367 19.1245H36C36.7766 19.1245 37.4062 18.4949 37.4062 17.7183C37.4062 16.9416 36.7766 16.312 36 16.312Z" fill="#50B44C"/>
<path d="M17.3067 35.4736C17.0452 35.212 16.6823 35.0615 16.3125 35.0615C15.9427 35.0615 15.5798 35.212 15.3183 35.4736C15.0567 35.7351 14.9062 36.0979 14.9062 36.4678C14.9062 36.839 15.0567 37.2004 15.3183 37.462C15.5798 37.7251 15.9427 37.874 16.3125 37.874C16.6823 37.874 17.0452 37.725 17.3067 37.462C17.5683 37.2004 17.7188 36.839 17.7188 36.4678C17.7188 36.0979 17.5683 35.7351 17.3067 35.4736Z" fill="#50B44C"/>
<path d="M45.5047 30.2749H42.75C41.9733 30.2749 41.3438 30.9045 41.3438 31.6812C41.3438 32.4578 41.9733 33.0874 42.75 33.0874H45.5047C46.2814 33.0874 46.9109 32.4578 46.9109 31.6812C46.9109 30.9045 46.2814 30.2749 45.5047 30.2749Z" fill="#50B44C"/>
<path d="M36.536 30.2749H36.5205C35.7438 30.2749 35.1143 30.9045 35.1143 31.6812C35.1143 32.4578 35.7438 33.0874 36.5205 33.0874H36.536C37.3125 33.0874 37.9422 32.4578 37.9422 31.6812C37.9422 30.9045 37.3126 30.2749 36.536 30.2749Z" fill="#50B44C"/>
<path d="M29.8124 30.2749H22.1296C21.353 30.2749 20.7234 30.9045 20.7234 31.6812C20.7234 32.4578 21.353 33.0874 22.1296 33.0874H29.8124C30.5891 33.0874 31.2187 32.4578 31.2187 31.6812C31.2187 30.9045 30.5891 30.2749 29.8124 30.2749Z" fill="#50B44C"/>
</svg>
