<svg width="20" height="20" viewBox="0 0 20 20" fill="none" xmlns="http://www.w3.org/2000/svg">
<path d="M16.7854 15.6085L14.0828 12.9059C14.9019 11.8337 15.3511 10.5331 15.3513 9.16074C15.3513 7.50689 14.7071 5.95192 13.5375 4.78249C12.3681 3.61306 10.8133 2.96893 9.15926 2.96893C7.50541 2.96893 5.95044 3.61306 4.781 4.78249C2.36686 7.19683 2.36686 11.1251 4.781 13.539C5.95044 14.7086 7.50541 15.3528 9.15926 15.3528C10.5316 15.3526 11.8322 14.9034 12.9044 14.0843L15.607 16.7869C15.7696 16.9496 15.983 17.031 16.1962 17.031C16.4094 17.031 16.6228 16.9496 16.7854 16.7869C17.1109 16.4616 17.1109 15.9338 16.7854 15.6085ZM5.95939 12.3606C4.19507 10.5963 4.19527 7.7254 5.95939 5.96087C6.81409 5.10638 7.95056 4.6356 9.15926 4.6356C10.3682 4.6356 11.5044 5.10638 12.3591 5.96087C13.2138 6.81557 13.6846 7.95204 13.6846 9.16074C13.6846 10.3696 13.2138 11.5059 12.3591 12.3606C11.5044 13.2153 10.3682 13.6861 9.15926 13.6861C7.95056 13.6861 6.81409 13.2153 5.95939 12.3606Z" fill="#2B2D79"/>
</svg>
