<svg width="20" height="20" viewBox="0 0 20 20" fill="none" xmlns="http://www.w3.org/2000/svg">
<path d="M18.2794 16.6946L17.2911 7.09803C17.2503 6.70011 16.915 6.39764 16.515 6.39764H3.51114C3.11219 6.39764 2.77719 6.69909 2.73532 7.09596L1.72047 16.6973C1.63672 17.5352 1.91606 18.3774 2.48664 19.008C3.05727 19.6382 3.86664 20 4.70746 20H15.3189C16.1558 20 16.9577 19.6455 17.5179 19.0268C18.0859 18.4008 18.3634 17.5519 18.2794 16.6946ZM16.3623 17.9789C16.0929 18.2759 15.7223 18.4395 15.3189 18.4395H4.70774C4.30696 18.4395 3.91918 18.265 3.64375 17.9607C3.36832 17.6564 3.23336 17.2525 3.27289 16.8569L4.21332 7.95839H15.811L16.727 16.8512C16.7686 17.2733 16.6388 17.6739 16.3623 17.9789Z" fill="#2B2D79"/>
<path d="M10.1431 0C7.67654 0 5.66974 2.00676 5.66974 4.47336V7.17816H7.23021V4.47336C7.23021 2.86711 8.53685 1.56047 10.1431 1.56047C11.7493 1.56047 13.0562 2.86711 13.0562 4.47336V7.17816H14.6164V4.47336C14.6165 2.00676 12.6097 0 10.1431 0Z" fill="#2B2D79"/>
</svg>
