<svg width="32" height="32" viewBox="0 0 32 32" fill="none" xmlns="http://www.w3.org/2000/svg">
<path d="M16 32C24.8366 32 32 24.8366 32 16C32 7.16344 24.8366 0 16 0C7.16344 0 0 7.16344 0 16C0 24.8366 7.16344 32 16 32Z" fill="#0084FF"/>
<path d="M26 15.6235C26 20.7381 21.5218 24.8835 16 24.8835C15.0306 24.8842 14.0655 24.7539 13.1309 24.4963L9.72545 26.3635V22.8326C7.45455 21.1363 6 18.5453 6 15.6235C6 10.509 10.4782 6.36353 16 6.36353C21.5218 6.36353 26 10.5108 26 15.6235Z" fill="white"/>
<path d="M22.4601 13.0308L16.9928 18.8308L14.4474 16.1162L9.47827 18.8326L14.9455 13.0308L17.5546 15.7453L22.4601 13.0308Z" fill="#2196F3"/>
</svg>
