<svg width="32" height="32" viewBox="0 0 32 32" fill="none" xmlns="http://www.w3.org/2000/svg">
<path d="M16 32C24.8366 32 32 24.8366 32 16C32 7.16344 24.8366 0 16 0C7.16344 0 0 7.16344 0 16C0 24.8366 7.16344 32 16 32Z" fill="#50ABF1"/>
<path d="M25.9618 9.9472C25.4871 10.6563 24.9092 11.2906 24.2472 11.829C24.1614 11.8973 24.0921 11.9841 24.0445 12.083C23.997 12.1819 23.9724 12.2902 23.9727 12.3999V12.4672C23.9651 13.8961 23.7028 15.3122 23.1981 16.649C22.6782 18.0502 21.9061 19.3443 20.9199 20.4672C19.6007 21.9711 17.9014 23.0927 15.9999 23.7145C14.747 24.1211 13.4372 24.3249 12.1199 24.3181C10.0339 24.3159 7.98536 23.7627 6.18177 22.7145C6.11718 22.6778 6.0664 22.6209 6.03718 22.5526C6.00796 22.4843 6.00191 22.4083 6.01995 22.3363C6.03824 22.265 6.07987 22.202 6.1382 22.1571C6.19654 22.1123 6.26821 22.0883 6.34177 22.089H6.83995C8.42558 22.0888 9.97493 21.6145 11.289 20.7272C10.5057 20.5992 9.77271 20.2579 9.17042 19.741C8.56813 19.224 8.11978 18.5512 7.87449 17.7963C7.86246 17.7591 7.86031 17.7194 7.86827 17.6811C7.87622 17.6428 7.894 17.6072 7.91986 17.5779C7.94572 17.5485 7.97877 17.5264 8.01577 17.5137C8.05276 17.501 8.09242 17.4981 8.13086 17.5054C8.37061 17.551 8.61408 17.5741 8.85813 17.5745H8.94904C8.18978 17.2256 7.54787 16.6642 7.10097 15.9582C6.65406 15.2522 6.42131 14.4318 6.43086 13.5963C6.43138 13.5571 6.44202 13.5187 6.46177 13.4848C6.48151 13.451 6.50967 13.4228 6.54353 13.403C6.57738 13.3833 6.61577 13.3726 6.65497 13.372C6.69416 13.3715 6.73283 13.3811 6.76722 13.3999C7.07528 13.572 7.4057 13.7005 7.74904 13.7817C7.06913 13.1096 6.63153 12.2308 6.50485 11.2831C6.37817 10.3355 6.56957 9.37255 7.04904 8.54539C7.06743 8.51491 7.09278 8.48921 7.12302 8.47041C7.15325 8.45161 7.1875 8.44024 7.22298 8.43722C7.25845 8.43421 7.29413 8.43964 7.32711 8.45307C7.36008 8.46649 7.3894 8.48754 7.41268 8.51448C8.36492 9.69162 9.54396 10.6655 10.8798 11.3782C12.2156 12.0909 13.681 12.528 15.189 12.6636H15.2054C15.2277 12.6628 15.2497 12.6576 15.27 12.6483C15.2903 12.6389 15.3085 12.6255 15.3236 12.609C15.3381 12.5925 15.3489 12.5731 15.3555 12.5521C15.3621 12.5312 15.3642 12.509 15.3618 12.4872C15.3055 11.9592 15.3399 11.4254 15.4636 10.909C15.572 10.4569 15.7564 10.0266 16.009 9.6363C16.5392 8.80361 17.3468 8.18532 18.289 7.89084C18.731 7.75228 19.1913 7.68118 19.6545 7.67993C20.7048 7.6789 21.7193 8.06169 22.5072 8.7563C22.6076 8.84551 22.7366 8.89582 22.8708 8.89811C22.9151 8.89738 22.959 8.89128 23.0018 8.87993C23.7424 8.69255 24.4522 8.39922 25.109 8.00902C25.1486 7.98618 25.1941 7.97578 25.2396 7.97918C25.2852 7.98257 25.3286 7.99961 25.3643 8.02806C25.4001 8.05652 25.4264 8.09507 25.4399 8.1387C25.4533 8.18233 25.4534 8.22901 25.4399 8.27266C25.2195 8.96081 24.8294 9.58235 24.3054 10.0799C24.778 9.96705 25.2393 9.81125 25.6836 9.61448C25.7284 9.59452 25.7784 9.58971 25.8262 9.60078C25.874 9.61184 25.9168 9.63818 25.9483 9.6758C25.9798 9.71342 25.9981 9.76027 26.0005 9.80925C26.0029 9.85823 25.9893 9.90666 25.9618 9.9472Z" fill="white"/>
</svg>
